<?xml version="1.0" standalone="no"?>
<!DOCTYPE svg PUBLIC "-//W3C//DTD SVG 20010904//EN"
 "http://www.w3.org/TR/2001/REC-SVG-20010904/DTD/svg10.dtd">
<svg version="1.0" xmlns="http://www.w3.org/2000/svg"
 width="1182.000000pt" height="630.000000pt" viewBox="0 0 1182.000000 630.000000"
 preserveAspectRatio="xMidYMid meet">

<g transform="translate(0.000000,630.000000) scale(0.100000,-0.100000)"
fill="#000000" stroke="none">
<path d="M1020 2710 l0 -149 663 -3 c649 -3 663 -3 702 -24 147 -77 135 -356
-18 -413 -19 -7 -247 -11 -688 -11 l-659 0 0 -150 0 -150 653 0 c688 -1 699
-2 749 -47 54 -49 84 -179 58 -259 -18 -57 -57 -104 -104 -125 -39 -18 -78
-19 -698 -19 l-658 0 0 -150 0 -150 673 0 c730 0 728 0 840 56 72 37 159 129
197 209 90 188 70 436 -46 592 -13 17 -24 34 -24 37 0 3 18 33 40 68 60 92 84
180 84 308 0 72 -5 124 -18 165 -57 192 -203 325 -386 354 -40 7 -314 11 -712
11 l-648 0 0 -150z"/>
<path d="M2921 2158 c0 -603 2 -680 17 -739 58 -219 256 -359 512 -359 249 0
459 153 509 371 7 27 11 301 11 722 l0 677 -150 0 -150 0 0 -663 0 -664 -23
-44 c-34 -64 -105 -99 -201 -99 -115 1 -191 49 -216 138 -6 24 -10 270 -10
685 l0 647 -150 0 -150 0 1 -672z"/>
<path d="M4662 2819 c-215 -27 -368 -152 -426 -348 -14 -48 -16 -138 -16 -733
l0 -678 145 0 145 0 0 648 c0 414 4 660 10 684 25 89 101 137 218 138 106 0
170 -32 210 -105 15 -27 17 -99 20 -697 l3 -668 144 0 145 0 0 653 c0 410 4
666 10 689 13 45 75 103 128 119 22 6 73 10 115 8 65 -4 82 -9 118 -34 84 -60
79 -14 79 -767 l0 -668 150 0 150 0 0 665 c0 446 -4 681 -11 717 -28 133 -116
252 -235 315 -88 47 -163 64 -279 64 -123 1 -233 -31 -317 -89 l-55 -39 -24
19 c-103 82 -279 126 -427 107z"/>
<path d="M6648 2819 c-171 -22 -319 -123 -392 -266 -44 -87 -46 -124 -46 -825
l0 -668 150 0 150 0 0 668 c0 754 -5 707 79 767 37 26 53 30 123 34 124 5 207
-39 237 -128 8 -24 11 -227 11 -687 l0 -654 145 0 145 0 0 684 c0 643 -1 688
-19 745 -71 230 -309 364 -583 330z"/>
<path d="M7452 1988 c3 -205 10 -229 78 -271 50 -31 161 -30 212 1 67 41 78
82 78 280 l0 172 -45 0 -45 0 0 -171 0 -171 -29 -29 c-22 -21 -39 -29 -66 -29
-27 0 -44 8 -66 29 l-29 29 0 171 0 171 -46 0 -46 0 4 -182z"/>
<path d="M8762 1992 c3 -156 6 -183 24 -213 69 -117 263 -117 325 1 17 30 19
59 19 212 l0 178 -40 0 -40 0 0 -147 c0 -82 -5 -165 -10 -185 -13 -45 -43 -68
-88 -68 -86 0 -102 39 -102 245 l0 155 -46 0 -46 0 4 -178z"/>
<path d="M7880 1925 l0 -235 40 0 40 0 0 168 1 167 29 -35 c16 -19 69 -95 117
-167 83 -125 90 -133 121 -133 l32 0 0 235 0 235 -40 0 -40 0 0 -152 0 -151
-41 59 c-136 194 -182 244 -226 244 l-33 0 0 -235z"/>
<path d="M8330 2125 l0 -35 70 0 70 0 0 -200 0 -200 45 0 45 0 0 200 0 200 70
0 70 0 0 35 0 35 -185 0 -185 0 0 -35z"/>
<path d="M9180 1925 l0 -235 45 0 45 0 0 107 0 107 61 -59 c33 -33 76 -81 96
-107 33 -46 37 -48 84 -48 27 0 49 3 49 6 0 14 -102 143 -154 193 l-55 54 99
106 99 106 -51 3 -50 3 -89 -93 -88 -93 -1 93 0 92 -45 0 -45 0 0 -235z"/>
<path d="M8785 1541 c-73 -18 -122 -60 -151 -130 -20 -49 -18 -176 5 -226 22
-49 77 -99 126 -115 48 -16 140 -9 189 15 103 50 147 225 86 345 -45 88 -154
135 -255 111z m122 -91 c45 -27 67 -74 67 -145 1 -83 -24 -132 -81 -157 -122
-54 -226 81 -175 227 30 86 116 120 189 75z"/>
<path d="M10135 1541 c-77 -20 -105 -53 -105 -127 0 -69 29 -104 110 -134 76
-28 110 -55 110 -85 0 -54 -66 -76 -152 -51 -58 17 -68 13 -71 -30 -2 -24 3
-30 33 -41 19 -6 62 -12 95 -12 124 -1 175 33 183 121 6 77 -22 113 -115 153
-39 16 -78 36 -87 44 -24 20 -21 68 5 82 21 11 90 8 135 -6 18 -6 23 -1 33 26
6 18 10 33 9 34 -30 24 -134 39 -183 26z"/>
<path d="M7450 1305 l0 -235 45 0 45 0 0 235 0 235 -45 0 -45 0 0 -235z"/>
<path d="M7650 1305 l0 -235 40 0 40 0 0 162 0 161 21 -19 c12 -10 64 -83 117
-161 91 -136 97 -143 129 -143 l33 0 0 235 0 235 -40 0 -39 0 -3 -151 -3 -150
-51 73 c-28 40 -79 108 -113 151 -55 70 -65 77 -96 77 l-35 0 0 -235z"/>
<path d="M8168 1534 c-17 -5 -18 -25 -18 -233 l0 -228 68 -7 c74 -7 166 5 209
27 71 38 113 113 113 204 0 110 -34 174 -114 215 -32 17 -63 22 -141 24 -55 2
-108 1 -117 -2z m217 -92 c46 -27 67 -75 63 -149 -6 -102 -62 -153 -165 -153
l-53 0 0 158 c0 87 3 162 8 166 11 13 113 -3 147 -22z"/>
<path d="M9160 1305 l0 -235 40 0 40 0 0 160 c0 88 3 160 8 160 10 0 91 -111
164 -225 60 -93 62 -95 100 -95 l38 0 0 235 0 235 -45 0 -45 0 0 -151 0 -151
-71 98 c-122 169 -155 204 -195 204 l-34 0 0 -235z"/>
<path d="M9660 1305 l0 -235 155 0 155 0 0 35 0 34 -112 3 -113 3 0 65 0 65
93 3 92 3 0 34 0 35 -95 0 -95 0 0 55 0 55 110 0 110 0 0 40 0 40 -150 0 -150
0 0 -235z"/>
<path d="M10420 1305 l0 -235 40 0 40 0 0 235 0 235 -40 0 -40 0 0 -235z"/>
<path d="M10698 1433 c-42 -97 -138 -347 -138 -358 0 -3 20 -5 44 -5 43 0 43
0 63 53 l20 52 98 0 98 0 17 -50 c17 -50 17 -50 63 -53 26 -2 47 1 47 5 0 13
-81 224 -135 351 l-47 112 -42 0 -42 0 -46 -107z m137 -120 l24 -63 -74 0 -74
0 28 78 c48 129 43 121 59 82 7 -18 24 -62 37 -97z"/>
</g>
</svg>
